<svg width="500" height="400" viewBox="0 0 500 400" fill="none" xmlns="http://www.w3.org/2000/svg">
  <!-- 背景面板 -->
  <rect width="500" height="400" rx="12" fill="#F8F9FA" />
  
  <!-- 顶部标题栏 -->
  <rect x="20" y="20" width="460" height="50" rx="8" fill="white" stroke="#EAEAEA" stroke-width="1"/>
  <rect x="40" y="35" width="120" height="20" rx="4" fill="#1e88e5" opacity="0.7"/>
  <circle cx="440" cy="45" r="15" fill="#5e35b1" opacity="0.6"/>
  
  <!-- 左侧面板：题库分类 -->
  <rect x="20" y="90" width="220" height="290" rx="8" fill="white" stroke="#EAEAEA" stroke-width="1"/>
  <rect x="40" y="110" width="180" height="12" rx="2" fill="#EAEAEA"/>
  <text x="40" y="105" font-family="Arial" font-size="12" fill="#333333">题库分类</text>
  
  <!-- 左侧面板按钮 -->
  <rect x="40" y="160" width="180" height="40" rx="6" fill="#1e88e5" opacity="0.1"/>
  <text x="60" y="185" font-family="Arial" font-size="14" fill="#1e88e5">前端开发</text>
  
  <rect x="40" y="210" width="180" height="40" rx="6" fill="white" stroke="#EAEAEA" stroke-width="1"/>
  <text x="60" y="235" font-family="Arial" font-size="14" fill="#666666">后端开发</text>
  
  <rect x="40" y="260" width="180" height="40" rx="6" fill="white" stroke="#EAEAEA" stroke-width="1"/>
  <text x="60" y="285" font-family="Arial" font-size="14" fill="#666666">产品设计</text>
  
  <!-- 右侧主内容：题目卡片 -->
  <rect x="260" y="90" width="220" height="140" rx="8" fill="white" stroke="#EAEAEA" stroke-width="1"/>
  <text x="280" y="110" font-family="Arial" font-size="14" font-weight="bold" fill="#333333">Vue组件通信方式有哪些？</text>
  <rect x="280" y="130" width="180" height="80" rx="4" fill="#F0F0F0"/>
  <text x="290" y="150" font-family="Arial" font-size="12" fill="#666666">难度：中等</text>
  <rect x="350" y="140" width="50" height="20" rx="10" fill="#1e88e5" opacity="0.2"/>
  <text x="358" y="155" font-family="Arial" font-size="12" fill="#1e88e5">前端</text>
  
  <!-- 右侧底部卡片：练习状态 -->
  <rect x="260" y="250" width="220" height="130" rx="8" fill="white" stroke="#EAEAEA" stroke-width="1"/>
  <text x="280" y="270" font-family="Arial" font-size="14" font-weight="bold" fill="#333333">练习进度</text>
  
  <!-- 进度条 -->
  <rect x="280" y="290" width="180" height="12" rx="6" fill="#EAEAEA"/>
  <rect x="280" y="290" width="100" height="12" rx="6" fill="#1e88e5"/>
  
  <text x="280" y="320" font-family="Arial" font-size="12" fill="#666666">已完成: 45/100</text>
  
  <rect x="280" y="330" width="100" height="30" rx="15" fill="url(#paint1_linear)"/>
  <text x="305" y="350" font-family="Arial" font-size="14" fill="white">继续学习</text>
  
  <!-- 渐变定义 -->
  <defs>
    <linearGradient id="paint1_linear" x1="280" y1="345" x2="380" y2="345" gradientUnits="userSpaceOnUse">
      <stop stop-color="#1e88e5"/>
      <stop offset="1" stop-color="#5e35b1"/>
    </linearGradient>
  </defs>
</svg> 